<?xml version="1.0" standalone="no"?>
<!DOCTYPE svg PUBLIC "-//W3C//DTD SVG 1.1//EN" "http://www.w3.org/Graphics/SVG/1.1/DTD/svg11.dtd" >
<svg xmlns="http://www.w3.org/2000/svg" xmlns:xlink="http://www.w3.org/1999/xlink" version="1.1" viewBox="-10 0 615 1000">
   <path fill="currentColor"
d="M560 524q0 133 -72 209.5t-187 76.5q-71 0 -137 -31t-98 -93.5t-32 -151.5q0 -103 96 -194q40 -38 192.5 -73.5q54.5 -12.5 119.25 25.25q46.25 27.25 82.25 85.25t36 147zM160 544q0 75 33.5 123q3.5 5 130.5 5q105 0 109.5 -42.5q10.5 -88.5 10.5 -93.5
q0 -95 -28 -113.5t-110 -18.5t-114 22.5t-32 117.5z" />
</svg>
