<?xml version="1.0" standalone="no"?>
<!DOCTYPE svg PUBLIC "-//W3C//DTD SVG 1.1//EN" "http://www.w3.org/Graphics/SVG/1.1/DTD/svg11.dtd" >
<svg xmlns="http://www.w3.org/2000/svg" xmlns:xlink="http://www.w3.org/1999/xlink" version="1.1" viewBox="-10 0 615 1000">
   <path fill="currentColor"
d="M514 532q0 133 -49 205.5t-164 72.5q-71 0 -126.5 -32.5t-61 -122.5t-5.5 -179q0 -134 67 -205q16 -17 129 -17q73 0 128.5 32.5t68.5 94.5t13 151zM242 554q0 88 -5.99609 138.786q-7.08008 44.2139 66.9961 44.2139q69.4688 0 75 -56q8 -81 4 -153
q-5.98047 -115.827 -22 -162q-12.6895 -38 -58 -38q-82 0 -77 71q17 62.5586 17 155z" />
</svg>
