<?xml version="1.0" standalone="no"?>
<!DOCTYPE svg PUBLIC "-//W3C//DTD SVG 1.1//EN" "http://www.w3.org/Graphics/SVG/1.1/DTD/svg11.dtd" >
<svg xmlns="http://www.w3.org/2000/svg" xmlns:xlink="http://www.w3.org/1999/xlink" version="1.1" viewBox="-10 0 615 1000">
   <path fill="currentColor"
d="M518 542q0 133 -50.5 181.5t-165.5 48.5q-71 0 -109.5 -22t-63.5 -66.5t-25 -133.5q0 -133 35.5 -192.5t150.5 -59.5q68 0 129.75 15.25q30.25 7.75 72.25 88.75q26 50 26 140zM206 532q0 95 7.5 150t89.5 55q81 0 84 -72.5t3 -167.5q0 -81 -38 -149q-11 -20 -50 -20
q-82 0 -89 54.5t-7 149.5z" />
</svg>
