<?xml version="1.0" standalone="no"?>
<!DOCTYPE svg PUBLIC "-//W3C//DTD SVG 1.1//EN" "http://www.w3.org/Graphics/SVG/1.1/DTD/svg11.dtd" >
<svg xmlns="http://www.w3.org/2000/svg" xmlns:xlink="http://www.w3.org/1999/xlink" version="1.1" viewBox="-10 0 615 1000">
   <path fill="currentColor"
d="M551 531q0 133 -67.5 206t-182.5 73q-71 0 -126.5 -32.5t-87.5 -95t-32 -151.5q0 -133 67 -205t182 -72q73 0 128.5 32.5t87 94t31.5 150.5zM146 531q0 95 37.5 150.5t119.5 55.5q81 0 119 -55.5t38 -150.5q0 -78 -40 -135q-48 -68 -118 -68q-59 0 -100 60
q-56 82 -56 143z" />
</svg>
