<?xml version="1.0" standalone="no"?>
<!DOCTYPE svg PUBLIC "-//W3C//DTD SVG 1.1//EN" "http://www.w3.org/Graphics/SVG/1.1/DTD/svg11.dtd" >
<svg xmlns="http://www.w3.org/2000/svg" xmlns:xlink="http://www.w3.org/1999/xlink" version="1.1" viewBox="-10 0 571 1000">
   <path fill="currentColor"
d="M287 253q98 0 147 56q46 53 46 126v365h-64l-17 -76h-4q-35 44 -73.5 65t-106.5 21q-73 0 -121 -38.5t-48 -120.5q0 -76 63 -123.5q57.3252 -42.9941 194 -47.5l91 -3l-4 -26.5q-11 -74.5 -28 -87.5q-35 -26 -77 -26t-78 10.5t-69 26.5l-22 -70q35 -19 77 -35t94 -16z
M314 541q-98.6416 3.74609 -138.5 32q-38.5 28 -38.5 79q0 45 27.5 66t70.5 21q57 0 103 -41q23.4336 -19.5273 45 -115.5l10 -44.5z" />
</svg>
