<?xml version="1.0" standalone="no"?>
<!DOCTYPE svg PUBLIC "-//W3C//DTD SVG 1.1//EN" "http://www.w3.org/Graphics/SVG/1.1/DTD/svg11.dtd" >
<svg xmlns="http://www.w3.org/2000/svg" xmlns:xlink="http://www.w3.org/1999/xlink" version="1.1" viewBox="-10 0 571 1000">
   <path fill="currentColor"
d="M286 284q127 0 148 25q46 53 46 126v365h-64l-17 -76h-4q-35 44 -73.5 65t-106.5 21q-73 0 -108.5 -40t-35.5 -122q0 -93 38 -120.5q63 -43.5 194 -47.5l91 -3v-32q0 -67 -29.5 -78.5t-82.5 -11.5q-42 0 -67 10.5t-58 26.5l-26 -68q35 -19 69 -29.5t86 -10.5zM314 541
q-99 4 -138.5 32q-29.5 21 -29.5 83q0 45 23 64t66 19q68 0 113 -37.5q45 -36.5 45 -115.5v-48z" />
</svg>
