<?xml version="1.0" standalone="no"?>
<!DOCTYPE svg PUBLIC "-//W3C//DTD SVG 1.1//EN" "http://www.w3.org/Graphics/SVG/1.1/DTD/svg11.dtd" >
<svg xmlns="http://www.w3.org/2000/svg" xmlns:xlink="http://www.w3.org/1999/xlink" version="1.1" viewBox="-10 0 571 1000">
   <path fill="currentColor"
d="M287 253q98 0 147 56q46 53 46 126v365h-64l-17 -76h-4q-35 44 -73.5 65t-106.5 21q-73 0 -112.5 -38.5t-39.5 -120.5q0 -56 66 -99q106 -70 174 -72l91 -3v-32q0 -67 -28 -87.5t-81 -20.5q-42 0 -78 10.5t-69 26.5l-22 -70q35 -19 77 -35t94 -16zM314 541q-54 2 -128 59
q-24 19 -24 63q0 45 15 60.5t58 15.5q68 0 113 -37.5q45 -36.5 45 -115.5v-48z" />
</svg>
