<?xml version="1.0" standalone="no"?>
<!DOCTYPE svg PUBLIC "-//W3C//DTD SVG 1.1//EN" "http://www.w3.org/Graphics/SVG/1.1/DTD/svg11.dtd" >
<svg xmlns="http://www.w3.org/2000/svg" xmlns:xlink="http://www.w3.org/1999/xlink" version="1.1" viewBox="-10 0 571 1000">
   <path fill="currentColor"
d="M287 253q98 0 147 56q46 53 46 126v365h-64l-17 -76h-4q-35 44 -73.5 65t-106.5 21q-73 0 -121 -38.5t-48 -120.5q0 -80 63 -123.5q62.5156 -43.165 194 -47.5l91 -3v-32q0 -67 -28 -87.5t-81 -20.5h-61.5t-52.5 16l-9 -72q35 -19 54 -23.5t71 -4.5zM314 541
q-100 4 -138.5 32t-38.5 79q0 45 27.5 66t70.5 21q68 0 113 -37.5t45 -115.5v-48z" />
</svg>
