<?xml version="1.0" standalone="no"?>
<!DOCTYPE svg PUBLIC "-//W3C//DTD SVG 1.1//EN" "http://www.w3.org/Graphics/SVG/1.1/DTD/svg11.dtd" >
<svg xmlns="http://www.w3.org/2000/svg" xmlns:xlink="http://www.w3.org/1999/xlink" version="1.1" viewBox="-10 0 571 1000">
   <path fill="currentColor"
d="M287 253q116 0 147 56q46.2695 85.4971 46 126l-2 301l-77 27l-2 -39h-4q-35 44 -70 56t-103 12q-73 0 -124.5 -29.5t-51.5 -111.5q0 -80 63 -123.5q62.5156 -43.165 194 -47.5l91 -3v-32q0 -67 -28 -87.5t-81 -20.5q-42 0 -78 10.5t-69 26.5l-22 -70q35 -19 77 -35
t94 -16zM314 541q-99.7061 3.78613 -138.5 32q-38.5 28 -38.5 79q0 45 29.5 53t72.5 8q68 0 111 -24.5t43 -102.5v-48z" />
</svg>
