<?xml version="1.0" standalone="no"?>
<!DOCTYPE svg PUBLIC "-//W3C//DTD SVG 1.1//EN" "http://www.w3.org/Graphics/SVG/1.1/DTD/svg11.dtd" >
<svg xmlns="http://www.w3.org/2000/svg" xmlns:xlink="http://www.w3.org/1999/xlink" version="1.1" viewBox="-10 0 571 1000">
  <g transform="matrix(1 0 0 -1 0 800)">
   <path fill="currentColor" d="M288 545q98 0 145 -43t47 -137v-365h-64l-17 76h-4q-35 -44 -73.5 -65t-106.5 -21q-73 0 -121 38.5t-48 120.5q0 80 63 123.5t194 47.5l91 3v32q0 67 -29 93t-82 26q-42 0 -80 -12.5t-71 -28.5l-27 66q35 19 83 32.5t100 13.5zM314 259q-100 -4 -138.5 -32t-38.5 -79
q0 -45 27.5 -66t70.5 -21q68 0 113 37.5t45 115.5v48z" />
  </g>

</svg>
